#!OML:ASF I:\Actors\actors\Patient Classification 2\Patient 1\Session 1\actor1.ASF
:FULLY-SPECIFIED
:DEGREES
440
root -0.82977 18.2946 5.09526 7.65545 -0.0335048 0.191841
lowerback 18.363 1.68559 -2.86776
upperback 2.51311 1.56616 -0.942005
thorax -7.6255 0.821739 0.232487
lowerneck -24.5655 -4.9608 -1.91687
upperneck 23.3692 -8.5407 7.78173
head 12.2615 -2.92064 1.74485
rclavicle -1.5207e-014 2.06736e-014
rhumerus 17.2216 25.0578 -82.3756
rradius 48.7564
rwrist -35.028
rhand -9.6771 -65.4233
rfingers 7.12502
rthumb 16.2946 454.759
lclavicle -1.5207e-014 2.06736e-014
lhumerus 7.40193 -28.835 94.3961
lradius 64.5031
lwrist 68.4129
lhand -29.0505 -3.2154
lfingers 7.12502
lthumb -2.40052 26.7508
rfemur 6.99642 1.08652 14.2113
rtibia -18.0788
rfoot -6.31483 -18.6383
rtoes 0.600636
lfemur 4.38007 -3.27718 -13.3531
ltibia -12.8854
lfoot -0.694222 15.8762
ltoes -16.6787
441
root -0.830502 18.2959 5.09673 7.60832 -0.0462527 0.153012
lowerback 18.3334 1.6714 -2.79254
upperback 2.65259 1.57199 -0.874512
thorax -7.45816 0.821183 0.264458
lowerneck -24.6403 -4.97541 -1.84393
upperneck 22.8352 -8.61528 8.04972
head 12.0858 -2.92773 1.81433
rclavicle 1.40143e-014 -4.17448e-015
rhumerus 16.2543 25.1806 -82.5562
rradius 49.5334
rwrist -35.076
rhand -9.45018 -64.8058
rfingers 7.12502
rthumb 16.5131 454.123
lclavicle 1.40143e-014 -4.17448e-015
lhumerus 6.89994 -29.0315 94.7995
lradius 64.4144
lwrist 67.3771
lhand -29.0124 -3.89423
lfingers 7.12502
lthumb -2.36366 26.0724
rfemur 7.06033 1.13426 14.2593
rtibia -18.0798
rfoot -6.36512 -18.6602
rtoes 0.81304
lfemur 4.4152 -3.29793 -13.3246
ltibia -12.8357
lfoot -0.740263 15.9482
ltoes -16.9414
442
root -0.831711 18.2958 5.09702 7.59427 -0.0202379 0.0907573
lowerback 18.3288 1.6314 -2.67952
upperback 2.76329 1.54992 -0.802637
thorax -7.33419 0.806836 0.285208
lowerneck -24.6916 -4.94909 -1.69974
upperneck 22.2603 -8.62088 8.21054
head 11.8775 -2.91551 1.84407
rclavicle 9.93923e-017 4.77083e-015
rhumerus 15.1856 25.1658 -83.014
rradius 50.2416
rwrist -35.1291
rhand -9.23966 -63.9924
rfingers 7.12502
rthumb 16.7157 453.293
lclavicle 9.93923e-017 4.77083e-015
lhumerus 5.85175 -28.4809 95.7015
lradius 65.4735
lwrist 66.4497
lhand -29.8018 -2.38527
lfingers 7.12502
lthumb -3.12601 27.5716
rfemur 7.09792 1.08371 14.3352
rtibia -18.1057
rfoot -6.40437 -18.6512
rtoes 1.333
lfemur 4.4122 -3.34547 -13.2631
ltibia -12.8097
lfoot -0.70494 16.0104
ltoes -17.301
443
root -0.832409 18.2949 5.09712 7.64684 0.0218235 0.0503427
lowerback 18.2671 1.58779 -2.57723
upperback 2.84587 1.52373 -0.71355
thorax -7.21049 0.791363 0.332187
lowerneck -24.7043 -4.93023 -1.57581
upperneck 21.7007 -8.59914 8.2674
head 11.6622 -2.90819 1.84398
rclavicle 7.25564e-015 -7.15625e-015
rhumerus 14.272 25.0665 -83.5199
rradius 50.6634
rwrist -35.2076
rhand -9.2341 -63.5793
rfingers 7.12502
rthumb 16.7211 452.879
lclavicle 7.25564e-015 -7.15625e-015
lhumerus 5.2529 -28.2499 96.0591
lradius 65.3148
lwrist 64.5911
lhand -28.2503 -1.04366
lfingers 7.12502
lthumb -1.62769 28.9299
rfemur 7.06861 1.02571 14.3826
rtibia -18.1545
rfoot -6.31757 -18.6591
rtoes 1.35509
lfemur 4.36545 -3.37857 -13.2251
ltibia -12.8582
lfoot -0.620516 16.0296
ltoes -17.5182
444
root -0.826051 18.2943 5.09483 7.75295 0.059918 0.0547004
lowerback 18.1805 1.53857 -2.39416
upperback 2.89918 1.50575 -0.624262
thorax -7.10325 0.778295 0.331429
lowerneck -24.6935 -4.95049 -1.56256
upperneck 21.1354 -8.5917 8.33256
head 11.4481 -2.91696 1.86298
rclavicle -1.12313e-014 1.13307e-014
rhumerus 13.5058 24.808 -84.0898
rradius 50.7758
rwrist -35.1891
rhand -9.22975 -63.3033
rfingers 7.12502
rthumb 16.7253 452.603
lclavicle -1.12313e-014 1.13307e-014
lhumerus 4.6532 -28.532 96.2914
lradius 65.5371
lwrist 65.2592
lhand -29.4051 -1.98692
lfingers 7.12502
lthumb -2.74293 27.9752
rfemur 6.96195 0.86575 14.3517
rtibia -18.2147
rfoot -6.09925 -18.5999
rtoes 1.03906
lfemur 4.27245 -3.4157 -13.2539
ltibia -12.97
lfoot -0.567152 16.0615
ltoes -17.3472
445
root -0.813095 18.2936 5.09039 7.88828 0.0899769 0.088278
lowerback 18.0974 1.48431 -2.09527
upperback 2.91382 1.49975 -0.564511
thorax -7.03641 0.768549 0.229547
lowerneck -24.668 -4.98099 -1.55885
upperneck 20.5969 -8.5805 8.33668
head 11.2395 -2.93234 1.86242
rclavicle -3.926e-015 1.64991e-014
rhumerus 12.7207 24.3997 -84.7783
rradius 50.7934
rwrist -35.0149
rhand -9.07519 -63.0721
rfingers 7.12502
rthumb 16.8741 452.359
lclavicle -3.926e-015 1.64991e-014
lhumerus 4.17055 -28.7362 96.5083
lradius 65.5348
lwrist 65.4021
lhand -29.6422 -2.35077
lfingers 7.12502
lthumb -2.97193 27.6083
rfemur 6.80419 0.576584 14.2671
rtibia -18.2734
rfoot -5.86676 -18.4562
rtoes 1.03768
lfemur 4.13964 -3.49969 -13.3269
ltibia -13.0909
lfoot -0.504206 16.1611
ltoes -17.0833
446
root -0.806567 18.293 5.0888 8.0249 0.145357 0.114385
lowerback 17.9693 1.42947 -1.85097
upperback 2.93203 1.48608 -0.466488
thorax -6.94358 0.756931 0.202373
lowerneck -24.6774 -4.97474 -1.5525
upperneck 20.1126 -8.50171 8.255
head 11.0499 -2.92489 1.84224
rclavicle 3.69739e-014 -1.07344e-014
rhumerus 11.9772 24.0772 -85.394
rradius 50.8478
rwrist -34.7697
rhand -8.82445 -62.9637
rfingers 7.12502
rthumb 17.1154 452.23
lclavicle 3.69739e-014 -1.07344e-014
lhumerus 3.73457 -28.8082 96.7239
lradius 65.424
lwrist 65.1584
lhand -29.4077 -2.27287
lfingers 7.12502
lthumb -2.7455 27.6892
rfemur 6.67053 0.38708 14.2204
rtibia -18.3309
rfoot -5.75961 -18.403
rtoes 1.27328
lfemur 4.0081 -3.53162 -13.3649
ltibia -13.1931
lfoot -0.374578 16.1681
ltoes -17.1817
447
root -0.806985 18.2938 5.09024 8.11061 0.199847 0.136674
lowerback 17.8882 1.38206 -1.67771
upperback 2.94968 1.46896 -0.338765
thorax -6.87946 0.745797 0.246803
lowerneck -24.693 -4.9516 -1.61202
upperneck 19.6473 -8.39412 8.23262
head 10.8747 -2.90069 1.85959
rclavicle -7.20594e-016 2.5842e-015
rhumerus 11.2337 23.8478 -85.9635
rradius 50.957
rwrist -34.6153
rhand -8.72495 -62.7722
rfingers 7.12502
rthumb 17.2112 452.03
lclavicle -7.20594e-016 2.5842e-015
lhumerus 3.29331 -28.8842 96.8557
lradius 65.3903
lwrist 64.9502
lhand -29.1732 -2.11174
lfingers 7.12502
lthumb -2.51896 27.8531
rfemur 6.62089 0.352585 14.2019
rtibia -18.394
rfoot -5.68946 -18.4508
rtoes 1.19176
lfemur 3.92943 -3.45899 -13.3826
ltibia -13.2502
lfoot -0.290109 16.0631
ltoes -17.3776
448
root -0.807688 18.2951 5.09253 8.15774 0.236445 0.19044
lowerback 17.8591 1.34508 -1.5127
upperback 2.93932 1.46035 -0.234007
thorax -6.87346 0.73904 0.26769
lowerneck -24.6145 -4.94631 -1.72174
upperneck 19.154 -8.31554 8.30487
head 10.6827 -2.8848 1.91535
rclavicle -9.83984e-015 1.10574e-015
rhumerus 10.536 23.6082 -86.5151
rradius 51.0016
rwrist -34.6676
rhand -8.75274 -62.4846
rfingers 7.12502
rthumb 17.1844 451.745
lclavicle -9.83984e-015 1.10574e-015
lhumerus 2.87329 -29.0293 96.9149
lradius 65.3633
lwrist 64.9206
lhand -29.0049 -1.93283
lfingers 7.12502
lthumb -2.35646 28.0339
rfemur 6.623 0.413897 14.1492
rtibia -18.4584
rfoot -5.65491 -18.5596
rtoes 0.863838
lfemur 3.86663 -3.40606 -13.4391
ltibia -13.2273
lfoot -0.296068 15.9973
ltoes -17.5806
449
root -0.807069 18.2949 5.09494 8.20857 0.26851 0.294619
lowerback 17.8217 1.29653 -1.36932
upperback 2.89958 1.43055 -0.153004
thorax -6.89411 0.722489 0.280134
lowerneck -24.4889 -4.91601 -1.78612
upperneck 18.6896 -8.21102 8.33492
head 10.4884 -2.85888 1.95355
rclavicle -2.16178e-015 2.50966e-015
rhumerus 9.95825 23.4071 -87.0035
rradius 50.9559
rwrist -34.7975
rhand -8.61682 -62.3906
rfingers 7.12502
rthumb 17.3153 451.639
lclavicle -2.16178e-015 2.50966e-015
lhumerus 2.46068 -29.1457 96.97
lradius 65.2874
lwrist 64.874
lhand -28.9991 -1.76951
lfingers 7.12502
lthumb -2.35082 28.1973
rfemur 6.6147 0.54977 14.0317
rtibia -18.504
rfoot -5.72663 -18.7409
rtoes 0.758186
lfemur 3.76903 -3.44496 -13.5501
ltibia -13.1408
lfoot -0.323288 15.9848
ltoes -17.6362
450
root -0.804992 18.2945 5.09857 8.24171 0.276517 0.384556
lowerback 17.8151 1.24031 -1.17521
upperback 2.84698 1.39811 -0.0914507
thorax -6.94368 0.703264 0.242821
lowerneck -24.4482 -4.86434 -1.75523
upperneck 18.3115 -8.09645 8.26986
head 10.332 -2.82718 1.94325
rclavicle 1.31943e-014 -1.98785e-015
rhumerus 9.4243 23.2703 -87.4219
rradius 50.9514
rwrist -34.9492
rhand -8.39665 -62.3439
rfingers 7.12502
rthumb 17.5272 451.574
lclavicle 1.31943e-014 -1.98785e-015
lhumerus 2.06677 -29.2363 97.0065
lradius 65.1844
lwrist 64.7426
lhand -28.8948 -1.69224
lfingers 7.12502
lthumb -2.25016 28.2756
rfemur 6.61218 0.705364 13.9157
rtibia -18.5213
rfoot -5.84355 -18.9032
rtoes 1.05121
lfemur 3.67999 -3.47923 -13.6498
ltibia -13.023
lfoot -0.366709 15.9443
ltoes -17.4006
451
root -0.802236 18.2961 5.10498 8.26166 0.260979 0.409555
lowerback 17.7474 1.19806 -0.918379
upperback 2.81768 1.39818 -0.0115734
thorax -6.93448 0.698224 0.183379
lowerneck -24.4488 -4.81161 -1.67381
upperneck 17.934 -7.97691 8.11411
head 10.1767 -2.79922 1.89303
rclavicle 7.00716e-015 -2.18663e-015
rhumerus 8.92375 23.1537 -87.76
rradius 51.0004
rwrist -35.0746
rhand -8.40589 -62.1883
rfingers 7.12502
rthumb 17.5183 451.419
lclavicle 7.00716e-015 -2.18663e-015
lhumerus 1.72288 -29.3308 97.0286
lradius 65.1293
lwrist 64.5647
lhand -28.5622 -1.63651
lfingers 7.12502
lthumb -1.92886 28.3345
rfemur 6.60841 0.835992 13.8717
rtibia -18.5067
rfoot -5.96885 -18.986
rtoes 1.46677
lfemur 3.62182 -3.54213 -13.6758
ltibia -12.8929
lfoot -0.533166 15.9636
ltoes -17.0039
